# AST/ASF file generated using VICON BodyLanguage
# -----------------------------------------------
:version 1.10
:name VICON
:units
  mass 1.0
  length 0.45
  angle deg
:documentation
   .ast/.asf automatically generated from VICON data using
   VICON BodyBuilder and BodyLanguage model FoxedUp or BRILLIANT.MOD
:root
   order TX TY TZ RX RY RZ
   axis XYZ
   position 0 0 0  
   orientation 0 0 0 
:bonedata
  begin
     id 1 
     name lhipjoint
     direction 0.710188 -0.616876 0.339259 
     length 2.5669 
     axis 0 0 0  XYZ
  end
  begin
     id 2 
     name lfemur
     direction 0.34202 -0.939693 0  
     length 7.12796  
     axis 0 0 20  XYZ
    dof rx ry rz
    limits (-160.0 20.0)
           (-70.0 70.0)
           (-60.0 70.0)
  end
  begin
     id 3 
     name ltibia
     direction 0.34202 -0.939693 0   
     length 7.58108   
     axis 0 0 20   XYZ
    dof rx
    limits (-10.0 170.0)
  end
  begin
     id 4 
     name lfoot
     direction 0.0669471 -0.183936 0.980656   
     length 2.17365   
     axis -90 7.62852e-016 20   XYZ
    dof rx rz
    limits (-45.0 90.0)
           (-70.0 20.0)
  end
  begin
     id 5 
     name ltoes
     direction 1.53508e-011 -4.21705e-011 1   
     length 1.09427   
     axis -90 7.62852e-016 20   XYZ
    dof rx
    limits (-90.0 20.0)
  end
  begin
     id 6 
     name rhipjoint
     direction -0.700191 -0.625589 0.34405   
     length 2.53115  
     axis 0 0 0  XYZ 
  end
  begin
     id 7 
     name rfemur
     direction -0.34202 -0.939693 0   
     length 7.33006   
     axis 0 0 -20   XYZ
    dof rx ry rz
    limits (-160.0 20.0)
           (-70.0 70.0)
           (-70.0 60.0)
  end
  begin
     id 8 
     name rtibia
     direction -0.34202 -0.939693 0   
     length 7.64926   
     axis 0 0 -20   XYZ
    dof rx
    limits (-10.0 170.0)
 end
 begin
     id 9 
     name rfoot
     direction -0.0688927 -0.189281 0.979503   
     length 2.20493  
     axis -90 -7.62852e-016 -20   XYZ
    dof rx rz
    limits (-45.0 90.0)
           (-20.0 70.0)
  end
  begin
     id 10 
     name rtoes
     direction -1.53567e-011 -4.21933e-011 1   
     length 1.10919   
     axis -90 -7.62852e-016 -20   XYZ
    dof rx
    limits (-90.0 20.0)
  end
  begin
     id 11 
     name lowerback
     direction -0.0167868 0.989873 -0.140959   
     length 2.14596   
     axis 0 0 0   XYZ
    dof rx ry rz
    limits (-20.0 45.0)
           (-30.0 30.0)
           (-30.0 30.0)
  end
  begin
     id 12 
     name upperback
     direction 0.0129109 0.998033 0.0613525   
     length 2.10457   
     axis 0 0 0   XYZ
    dof rx ry rz
    limits (-20.0 45.0)
           (-30.0 30.0)
           (-30.0 30.0)
  end
  begin
     id 13 
     name thorax
     direction 0.0177047 0.991119 0.131797   
     length 2.17652   
     axis 0 0 0   XYZ
    dof rx ry rz
    limits (-20.0 45.0)
           (-30.0 30.0)
           (-30.0 30.0)
  end
  begin
     id 14 
     name lowerneck
     direction -0.0336893 0.997548 0.0613464   
     length 1.8912   
     axis 0 0 0   XYZ
    dof rx ry rz
    limits (-20.0 45.0)
           (-30.0 30.0)
           (-30.0 30.0)
  end
  begin
     id 15 
     name upperneck
     direction 0.0435909 0.997179 -0.0611028   
     length 1.8829   
     axis 0 0 0   XYZ
    dof rx ry rz
    limits (-20.0 45.0)
           (-30.0 30.0)
           (-30.0 30.0)
  end
  begin
     id 16
     name head
     direction 0.0175076 0.999444 -0.0283782  
     length 1.93197  
     axis 0 0 0   XYZ
    dof rx ry rz
    limits (-20.0 45.0)
           (-30.0 30.0)
           (-30.0 30.0)
  end
  begin
     id 17 
     name lclavicle
     direction 0.919164 0.389875 0.0559876  
     length 3.60004  
     axis 0 0 0   XYZ
    dof ry rz
    limits (-20.0 10.0)
           (0.0 20.0)
  end
  begin
     id 18 
     name lhumerus
     direction 1 -4.48958e-011 6.89191e-027   
     length 5.43301   
     axis 180 -30 -90   XYZ
    dof rx ry rz
    limits (-60.0 90.0)
           (-90.0 90.0)
           (-90.0 90.0)
  end
  begin
     id 19
     name lradius
     direction 1 -4.4897e-011 3.24727e-027   
     length 3.15936   
     axis 180 -30 -90   XYZ
    dof rx
    limits (-10.0 170.0)
  end
  begin
     id 20
     name lwrist
     direction 1 -4.4897e-011 9.00228e-027   
     length 1.57968   
     axis -6.29373e-015 90 90   XYZ
    dof ry
    limits (-180.0 0.0)
 end
  begin
     id 21 
     name lhand
     direction 1 -4.48968e-011 1.80042e-026   
     length 0.712827   
     axis -1.14882e-014 90 90   XYZ
    dof rx rz
    limits (-90.0 90.0)
           (-45.0 45.0)
  end
  begin
     id 22 
     name lfingers
     direction 1 -4.49019e-011 3.60267e-026   
     length 0.574699   
     axis -2.29769e-014 90 90   XYZ
    dof rx
    limits (0.0 90.0)
  end
  begin
     id 23
     name lthumb
     direction 0.707107 -6.3498e-011 0.707107   
     length 0.825157   
     axis -90 45 5.37419e-014   XYZ
    dof rx rz
    limits (-45.0 45.0)
           (-45.0 45.0)
  end
  begin
     id 24 
     name rclavicle
     direction -0.890334 0.455305 -0.00132111   
     length 3.51494  
     axis 0 0 0   XYZ 
    dof ry rz
    limits (-10.0 20.0)
           (-20.0 0.0)
  end
  begin
     id 25 
     name rhumerus
     direction -1 -4.48967e-011 5.07175e-028  
     length 5.34194   
     axis 180 30 90   XYZ
    dof rx ry rz
    limits (-90.0 60.0)
           (-90.0 90.0)
           (-90.0 90.0)
  end
  begin
     id 26 
     name rradius
     direction -1 -4.48955e-011 3.30467e-027   
     length 3.19351   
     axis 180 30 90   XYZ
    dof rx
    limits (-10.0 170.0)
  end
  begin
     id 27 
     name rwrist
     direction -1 -4.48968e-011 9.00208e-027   
     length 1.59676   
     axis -6.29373e-015 -90 -90   XYZ
    dof ry
    limits (-180.0 0.0)
  end
  begin
     id 28
     name rhand
     direction -1 -4.49e-011 1.80099e-026   
     length 0.743862   
     axis -1.14882e-014 -90 -90   XYZ
    dof rx rz
    limits (-90.0 90.0)
           (-45.0 45.0)
  end
  begin
     id 29
     name rfingers
     direction -1 -4.49009e-011 3.6023e-026   
     length 0.599721   
     axis -2.29769e-014 -90 -90   XYZ
    dof rx
    limits (0.0 90.0)
  end
  begin
     id 30
     name rthumb
     direction -0.707107 -6.35025e-011 0.707107   
     length 0.861083   
     axis -90 -45 -5.37419e-014   XYZ
    dof rx rz
    limits (-45.0 45.0)
           (-45.0 45.0)
  end
:hierarchy
  begin
    root lhipjoint rhipjoint lowerback
    lhipjoint lfemur
    lfemur ltibia
    ltibia lfoot
    lfoot ltoes
    rhipjoint rfemur
    rfemur rtibia
    rtibia rfoot
    rfoot rtoes
    lowerback upperback
    upperback thorax
    thorax lowerneck lclavicle rclavicle
    lowerneck upperneck
    upperneck head
    lclavicle lhumerus
    lhumerus lradius
    lradius lwrist
    lwrist lhand lthumb
    lhand lfingers
    rclavicle rhumerus
    rhumerus rradius
    rradius rwrist
    rwrist rhand rthumb
    rhand rfingers
  end

#!OML:ASF H:\Martial Arts Walks\Project 1\Capture day 1\Session 1\male.ASF
:FULLY-SPECIFIED
:DEGREES
62
root -0.764918 11.5422 11.3486 8.89747 1.54722 -1.8719
lowerback 18.5721 1.65058 -2.63399
upperback -3.54743 1.72261 1.00518
thorax -14.6541 1.07457 2.10831
lowerneck -8.15869 -3.30589 -5.79105
upperneck 5.79262 -4.18854 5.41785
head 3.65274 -1.99007 2.61833
rclavicle 4.82363e-015 1.51573e-015
rhumerus 39.3866 -2.696 -63.7612
rradius 94.5488
rwrist 20.9453
rhand 1.29349 -14.0344
rfingers 7.12502
rthumb 26.8287 -42.1512
lclavicle 4.82363e-015 1.51573e-015
lhumerus 41.8262 -4.75946 87.2904
lradius 87.9934
lwrist -35.7352
lhand -10.7659 2.18124
lfingers 7.12502
lthumb 15.246 31.5994
rfemur -72.3261 -5.4686 21.0404
rtibia 107.688
rfoot -33.3585 -17.8254
rtoes -14.2288
lfemur -72.9948 11.2215 -18.1731
ltibia 106.916
lfoot -31.625 17.0209
ltoes -14.6103
63
root -0.766073 11.5398 11.3488 8.90321 1.54657 -1.87288
lowerback 18.5743 1.6524 -2.6289
upperback -3.55154 1.72595 1.00324
thorax -14.6602 1.07565 2.1021
lowerneck -8.1533 -3.30879 -5.79344
upperneck 5.76186 -4.19125 5.41616
head 3.64108 -1.9916 2.61783
rclavicle 1.34646e-014 4.34841e-015
rhumerus 39.3869 -2.68772 -63.7564
rradius 94.5424
rwrist 20.9446
rhand 1.29379 -14.043
rfingers 7.12502
rthumb 26.829 -42.1598
lclavicle 1.34646e-014 4.34841e-015
lhumerus 41.8346 -4.75964 87.2935
lradius 87.9953
lwrist -35.7487
lhand -10.7555 2.17519
lfingers 7.12502
lthumb 15.256 31.5926
rfemur -72.3489 -5.47422 21.0514
rtibia 107.71
rfoot -33.3662 -17.8206
rtoes -14.2247
lfemur -73.0161 11.2111 -18.1643
ltibia 106.939
lfoot -31.6235 17.0382
ltoes -14.6065
64
root -0.767323 11.5378 11.3486 8.91022 1.54504 -1.87222
lowerback 18.5755 1.65472 -2.62795
upperback -3.55715 1.72918 1.00256
thorax -14.6678 1.07715 2.09973
lowerneck -8.134 -3.30922 -5.79601
upperneck 5.71864 -4.19088 5.41392
head 3.62211 -1.99181 2.61736
rclavicle 9.10061e-016 -1.2424e-015
rhumerus 39.3817 -2.67653 -63.7454
rradius 94.5411
rwrist 20.95
rhand 1.29614 -14.0463
rfingers 7.12502
rthumb 26.8313 -42.1627
lclavicle 9.10061e-016 -1.2424e-015
lhumerus 41.8406 -4.75985 87.2953
lradius 88.0029
lwrist -35.7474
lhand -10.7403 2.17179
lfingers 7.12502
lthumb 15.2707 31.5881
rfemur -72.3731 -5.47582 21.0599
rtibia 107.729
rfoot -33.371 -17.8142
rtoes -14.2168
lfemur -73.0395 11.2054 -18.1589
ltibia 106.959
lfoot -31.62 17.0503
ltoes -14.5961
65
root -0.768612 11.5364 11.3482 8.9176 1.54318 -1.8721
lowerback 18.5783 1.65769 -2.62716
upperback -3.56377 1.73328 1.00248
thorax -14.6776 1.07913 2.09784
lowerneck -8.10325 -3.30748 -5.80024
upperneck 5.66222 -4.18782 5.41507
head 3.5963 -1.99073 2.61853
rclavicle -1.36447e-014 -1.21259e-014
rhumerus 39.3739 -2.66469 -63.7283
rradius 94.5437
rwrist 20.9558
rhand 1.28806 -14.0494
rfingers 7.12502
rthumb 26.8235 -42.167
lclavicle -1.36447e-014 -1.21259e-014
lhumerus 41.8449 -4.76129 87.2959
lradius 88.0123
lwrist -35.7482
lhand -10.7274 2.16518
lfingers 7.12502
lthumb 15.2831 31.5805
rfemur -72.3945 -5.47319 21.0681
rtibia 107.744
rfoot -33.3746 -17.8064
rtoes -14.2045
lfemur -73.06 11.2047 -18.1538
ltibia 106.974
lfoot -31.6176 17.0562
ltoes -14.5851
66
root -0.770013 11.535 11.3477 8.92674 1.53964 -1.87264
lowerback 18.5798 1.66188 -2.62815
upperback -3.57116 1.73876 1.00338
thorax -14.6877 1.08198 2.09764
lowerneck -8.06158 -3.30401 -5.80565
upperneck 5.5942 -4.18272 5.41936
head 3.56435 -1.9887 2.62112
rclavicle 7.9607e-015 6.13748e-015
rhumerus 39.3647 -2.65278 -63.7063
rradius 94.5489
rwrist 20.961
rhand 1.27362 -14.0517
rfingers 7.12502
rthumb 26.8097 -42.1714
lclavicle 7.9607e-015 6.13748e-015
lhumerus 41.8486 -4.76491 87.294
lradius 88.0207
lwrist -35.7549
lhand -10.7243 2.16035
lfingers 7.12502
lthumb 15.2861 31.5755
rfemur -72.4188 -5.46741 21.0777
rtibia 107.757
rfoot -33.3741 -17.8017
rtoes -14.2093
lfemur -73.083 11.212 -18.1497
ltibia 106.988
lfoot -31.6156 17.0564
ltoes -14.567
67
root -0.771484 11.5333 11.3472 8.93567 1.53681 -1.87454
lowerback 18.5793 1.66527 -2.62824
upperback -3.57722 1.74359 1.0052
thorax -14.695 1.08446 2.09823
lowerneck -8.00977 -3.29864 -5.8132
upperneck 5.51258 -4.17524 5.42799
head 3.52579 -1.98549 2.62573
rclavicle 1.64619e-015 9.93923e-016
rhumerus 39.3572 -2.64066 -63.6822
rradius 94.5569
rwrist 20.9649
rhand 1.25387 -14.0554
rfingers 7.12502
rthumb 26.7908 -42.178
lclavicle 1.64619e-015 9.93923e-016
lhumerus 41.8525 -4.76884 87.2882
lradius 88.0294
lwrist -35.7603
lhand -10.7302 2.15608
lfingers 7.12502
lthumb 15.2804 31.5716
rfemur -72.4431 -5.46588 21.0921
rtibia 107.774
rfoot -33.3731 -17.8078
rtoes -14.2294
lfemur -73.1082 11.2251 -18.1451
ltibia 107.004
lfoot -31.6128 17.055
ltoes -14.5612
68
root -0.772992 11.5312 11.3467 8.94433 1.53402 -1.87896
lowerback 18.5773 1.66805 -2.6265
upperback -3.5828 1.74822 1.00818
thorax -14.7008 1.08674 2.09917
lowerneck -7.95006 -3.29172 -5.82354
upperneck 5.42345 -4.16595 5.44198
head 3.48331 -1.98134 2.63284
rclavicle -4.82985e-015 -1.34428e-014
rhumerus 39.35 -2.62838 -63.6559
rradius 94.5657
rwrist 20.9657
rhand 1.23132 -14.0592
rfingers 7.12502
rthumb 26.7692 -42.1851
lclavicle -4.82985e-015 -1.34428e-014
lhumerus 41.8553 -4.77337 87.2804
lradius 88.0371
lwrist -35.7674
lhand -10.7431 2.14978
lfingers 7.12502
lthumb 15.268 31.5663
rfemur -72.4673 -5.46968 21.113
rtibia 107.796
rfoot -33.3706 -17.8289
rtoes -14.2708
lfemur -73.1361 11.245 -18.1386
ltibia 107.024
lfoot -31.6155 17.0462
ltoes -14.5517
69
root -0.77454 11.5288 11.3463 8.95052 1.53291 -1.88118
lowerback 18.575 1.66981 -2.62613
upperback -3.58621 1.75109 1.01073
thorax -14.7038 1.08826 2.10098
lowerneck -7.88563 -3.28485 -5.83174
upperneck 5.32764 -4.15686 5.45451
head 3.43754 -1.97737 2.63901
rclavicle -1.10947e-014 4.91992e-015
rhumerus 39.3452 -2.61778 -63.6292
rradius 94.5738
rwrist 20.9626
rhand 1.21244 -14.0606
rfingers 7.12502
rthumb 26.7512 -42.1893
lclavicle -1.10947e-014 4.91992e-015
lhumerus 41.8582 -4.779 87.2691
lradius 88.0435
lwrist -35.7721
lhand -10.7673 2.14456
lfingers 7.12502
lthumb 15.2446 31.5628
rfemur -72.4876 -5.48264 21.1351
rtibia 107.821
rfoot -33.3686 -17.8622
rtoes -14.3386
lfemur -73.1616 11.2674 -18.1349
ltibia 107.044
lfoot -31.6211 17.0344
ltoes -14.5384
70
root -0.77604 11.5265 11.3461 8.95566 1.53361 -1.88116
lowerback 18.572 1.66969 -2.627
upperback -3.58822 1.75108 1.01262
thorax -14.7044 1.08848 2.10365
lowerneck -7.82261 -3.27736 -5.83949
upperneck 5.23144 -4.14697 5.46793
head 3.39195 -1.97294 2.64543
rclavicle 1.88317e-014 1.51573e-014
rhumerus 39.3415 -2.60734 -63.6045
rradius 94.5805
rwrist 20.9596
rhand 1.19636 -14.0564
rfingers 7.12502
rthumb 26.7358 -42.1875
lclavicle 1.88317e-014 1.51573e-014
lhumerus 41.8618 -4.7834 87.2525
lradius 88.0511
lwrist -35.7715
lhand -10.7909 2.13776
lfingers 7.12502
lthumb 15.2219 31.5578
rfemur -72.5054 -5.50428 21.1563
rtibia 107.848
rfoot -33.3693 -17.8964
rtoes -14.4049
lfemur -73.1846 11.29 -18.1339
ltibia 107.064
lfoot -31.63 17.0199
ltoes -14.5146
71
root -0.777533 11.5247 11.3458 8.95967 1.53472 -1.87909
lowerback 18.5693 1.66916 -2.62878
upperback -3.58915 1.75007 1.01307
thorax -14.7039 1.08822 2.10553
lowerneck -7.75813 -3.27105 -5.84244
upperneck 5.13216 -4.13893 5.47837
head 3.34495 -1.96945 2.64979
rclavicle -1.1163e-014 1.56543e-015
rhumerus 39.337 -2.59934 -63.5807
rradius 94.5866
rwrist 20.9533
rhand 1.18409 -14.0478
rfingers 7.12502
rthumb 26.724 -42.1806
lclavicle -1.1163e-014 1.56543e-015
lhumerus 41.8654 -4.78883 87.2318
lradius 88.0593
lwrist -35.7704
lhand -10.8099 2.13245
lfingers 7.12502
lthumb 15.2036 31.5538
rfemur -72.5199 -5.52867 21.1749
rtibia 107.871
rfoot -33.3725 -17.9216
rtoes -14.465
lfemur -73.2026 11.3141 -18.1354
ltibia 107.079
lfoot -31.6415 16.9998
ltoes -14.4779
72
root -0.779034 11.5235 11.3454 8.96301 1.53738 -1.87676
lowerback 18.5677 1.66742 -2.63054
upperback -3.58848 1.74743 1.01352
thorax -14.7021 1.08717 2.1079
lowerneck -7.69779 -3.26536 -5.84364
upperneck 5.03267 -4.13158 5.48737
head 3.29868 -1.96627 2.65326
rclavicle -1.71203e-014 5.41688e-015
rhumerus 39.3354 -2.59213 -63.5602
rradius 94.594
rwrist 20.9489
rhand 1.18692 -14.0386
rfingers 7.12502
rthumb 26.7267 -42.171
lclavicle -1.71203e-014 5.41688e-015
lhumerus 41.8709 -4.79277 87.2077
lradius 88.0689
lwrist -35.7637
lhand -10.8194 2.12921
lfingers 7.12502
lthumb 15.1945 31.5513
rfemur -72.5339 -5.55398 21.1906
rtibia 107.887
rfoot -33.3799 -17.9219
rtoes -14.4881
lfemur -73.2181 11.3376 -18.1373
ltibia 107.089
lfoot -31.652 16.9743
ltoes -14.4337
73
root -0.780524 11.5227 11.3447 8.96687 1.54178 -1.87281
lowerback 18.5681 1.66476 -2.63312
upperback -3.58739 1.74322 1.01363
thorax -14.7009 1.08546 2.11081
lowerneck -7.64206 -3.26013 -5.8422
upperneck 4.93404 -4.12464 5.49285
head 3.2535 -1.96332 2.65498
rclavicle 1.20793e-014 3.05631e-015
rhumerus 39.3345 -2.58526 -63.5418
rradius 94.6032
rwrist 20.9469
rhand 1.19671 -14.0294
rfingers 7.12502
rthumb 26.7361 -42.1604
lclavicle 1.20793e-014 3.05631e-015
lhumerus 41.8776 -4.79535 87.1802
lradius 88.0792
lwrist -35.7572
lhand -10.8248 2.13187
lfingers 7.12502
lthumb 15.1893 31.5544
rfemur -72.5484 -5.58122 21.2039
rtibia 107.899
rfoot -33.3898 -17.907
rtoes -14.4965
lfemur -73.2314 11.3588 -18.1401
ltibia 107.093
lfoot -31.6636 16.9415
ltoes -14.3786
74
root -0.781946 11.5222 11.344 8.97099 1.54736 -1.86741
lowerback 18.5696 1.6616 -2.63587
upperback -3.58594 1.73828 1.01367
thorax -14.6999 1.08341 2.11395
lowerneck -7.58551 -3.25461 -5.8411
upperneck 4.83269 -4.11716 5.49741
head 3.20725 -1.96014 2.65647
rclavicle 1.16972e-014 7.50412e-015
rhumerus 39.3348 -2.5791 -63.5255
rradius 94.612
rwrist 20.9468
rhand 1.21681 -14.0213
rfingers 7.12502
rthumb 26.7553 -42.1494
lclavicle 1.16972e-014 7.50412e-015
lhumerus 41.8833 -4.79725 87.1518
lradius 88.088
lwrist -35.7547
lhand -10.8333 2.13978
lfingers 7.12502
lthumb 15.1811 31.5629
rfemur -72.5644 -5.61079 21.2141
rtibia 107.907
rfoot -33.4016 -17.8764
rtoes -14.4847
lfemur -73.2434 11.3774 -18.1446
ltibia 107.095
lfoot -31.6749 16.9058
ltoes -14.3216
